<svg xmlns="http://www.w3.org/2000/svg" viewBox="0 0 100 100"><g fill="none" stroke="#2ba9b4" stroke-width="5.8" stroke-linecap="round" stroke-linejoin="round"><path d="M97.059 50c0-25.99-21.07-47.059-47.059-47.059v0C24.01 2.941 2.941 24.011 2.941 50v0c0 25.99 21.07 47.059 47.059 47.059v0c25.99 0 47.059-21.07 47.059-47.059"/><path d="M38.184 80.909v0h23.46m-11.73 0v0-11.901 0l23.46-29.752m5.865 11.9v0H67.51m-11.73 5.951v0l-5.865-11.9v0-29.753m0 11.9v0l11.73-5.95m-11.73 23.802v0l-23.46-17.851m11.73 11.9v0l-11.73 5.951"/></g></svg>