<svg xmlns="http://www.w3.org/2000/svg" viewBox="0 0 100 100">
  <g fill="none" stroke="#e39aac" stroke-width="5.8px" stroke-linecap="round" stroke-linejoin="round">
    <path
       d="m 97.058822,50 c 0,-25.989869 -21.068952,-47.0588217 -47.058821,-47.0588217 v 0 C 24.01013,2.9411783 2.9411783,24.010131 2.9411783,50 v 0 c 0,25.98987 21.0689517,47.058821 47.0588227,47.058821 v 0 C 75.98987,97.058821 97.058822,75.98987 97.058822,50" />
    <path
       d="m 38.183899,80.908765 v 0 h 23.460197 m -11.730098,0 v 0 -11.900903 0 L 73.374195,39.255605 m 5.865049,11.900903 v 0 H 67.509146 M 55.779047,57.10696 v 0 L 49.913998,45.206057 v 0 0 V 15.4538 m 0,11.900903 v 0 L 61.644096,21.404251 M 49.913998,45.206057 v 0 L 26.4538,27.354703 m 11.730099,11.900902 v 0 L 26.4538,45.206057" />
  </g>
</svg>
